<svg xmlns="http://www.w3.org/2000/svg" viewBox="0 0 180 180" width="180" height="180">
  <!-- iOS-optimized design with rounded corners -->
  <defs>
    <linearGradient id="iosBg" x1="0%" y1="0%" x2="100%" y2="100%">
      <stop offset="0%" style="stop-color:#667eea;stop-opacity:1" />
      <stop offset="100%" style="stop-color:#764ba2;stop-opacity:1" />
    </linearGradient>
    <linearGradient id="iosRacket" x1="0%" y1="0%" x2="100%" y2="100%">
      <stop offset="0%" style="stop-color:#fbbf24;stop-opacity:1" />
      <stop offset="100%" style="stop-color:#f59e0b;stop-opacity:1" />
    </linearGradient>
  </defs>
  
  <!-- iOS-style rounded rectangle -->
  <rect x="0" y="0" width="180" height="180" rx="40" ry="40" fill="url(#iosBg)"/>
  
  <!-- Simplified badminton racket for small icon -->
  <!-- Racket head -->
  <ellipse cx="90" cy="65" rx="25" ry="35" fill="none" stroke="url(#iosRacket)" stroke-width="6"/>
  
  <!-- Simplified strings -->
  <line x1="75" y1="40" x2="75" y2="90" stroke="#fbbf24" stroke-width="2" opacity="0.8"/>
  <line x1="85" y1="35" x2="85" y2="95" stroke="#fbbf24" stroke-width="2" opacity="0.8"/>
  <line x1="95" y1="35" x2="95" y2="95" stroke="#fbbf24" stroke-width="2" opacity="0.8"/>
  <line x1="105" y1="40" x2="105" y2="90" stroke="#fbbf24" stroke-width="2" opacity="0.8"/>
  
  <line x1="70" y1="55" x2="110" y2="55" stroke="#fbbf24" stroke-width="2" opacity="0.8"/>
  <line x1="68" y1="65" x2="112" y2="65" stroke="#fbbf24" stroke-width="2" opacity="0.8"/>
  <line x1="70" y1="75" x2="110" y2="75" stroke="#fbbf24" stroke-width="2" opacity="0.8"/>
  
  <!-- Racket handle -->
  <rect x="85" y="100" width="10" height="40" fill="url(#iosRacket)" rx="5"/>
  <rect x="83" y="135" width="14" height="8" fill="#92400e" rx="4"/>
  
  <!-- Shuttlecock -->
  <circle cx="125" cy="110" r="6" fill="#ffffff" stroke="#e5e7eb" stroke-width="2"/>
  <path d="M 125 104 L 120 95 L 122 95 L 125 100 L 128 95 L 130 95 Z" fill="#ffffff" stroke="#e5e7eb" stroke-width="1"/>
  
  <!-- Trophy accent -->
  <circle cx="55" cy="125" r="4" fill="#fbbf24"/>
  <rect x="53" y="127" width="4" height="6" fill="#f59e0b"/>
</svg>
