<svg xmlns="http://www.w3.org/2000/svg" viewBox="0 0 64 64" width="64" height="64">
  <!-- Background circle with gradient -->
  <defs>
    <linearGradient id="bg" x1="0%" y1="0%" x2="100%" y2="100%">
      <stop offset="0%" style="stop-color:#667eea;stop-opacity:1" />
      <stop offset="100%" style="stop-color:#764ba2;stop-opacity:1" />
    </linearGradient>
    <linearGradient id="racket" x1="0%" y1="0%" x2="100%" y2="100%">
      <stop offset="0%" style="stop-color:#fbbf24;stop-opacity:1" />
      <stop offset="100%" style="stop-color:#f59e0b;stop-opacity:1" />
    </linearGradient>
  </defs>
  
  <!-- Background -->
  <circle cx="32" cy="32" r="30" fill="url(#bg)" stroke="#4338ca" stroke-width="2"/>
  
  <!-- Badminton racket -->
  <!-- Racket head (oval) -->
  <ellipse cx="32" cy="20" rx="10" ry="14" fill="none" stroke="url(#racket)" stroke-width="2.5"/>
  
  <!-- Racket strings (simplified grid) -->
  <line x1="26" y1="12" x2="26" y2="28" stroke="#fbbf24" stroke-width="0.8" opacity="0.8"/>
  <line x1="29" y1="10" x2="29" y2="30" stroke="#fbbf24" stroke-width="0.8" opacity="0.8"/>
  <line x1="32" y1="9" x2="32" y2="31" stroke="#fbbf24" stroke-width="0.8" opacity="0.8"/>
  <line x1="35" y1="10" x2="35" y2="30" stroke="#fbbf24" stroke-width="0.8" opacity="0.8"/>
  <line x1="38" y1="12" x2="38" y2="28" stroke="#fbbf24" stroke-width="0.8" opacity="0.8"/>
  
  <line x1="24" y1="16" x2="40" y2="16" stroke="#fbbf24" stroke-width="0.8" opacity="0.8"/>
  <line x1="23" y1="20" x2="41" y2="20" stroke="#fbbf24" stroke-width="0.8" opacity="0.8"/>
  <line x1="24" y1="24" x2="40" y2="24" stroke="#fbbf24" stroke-width="0.8" opacity="0.8"/>
  
  <!-- Racket handle -->
  <rect x="30" y="34" width="4" height="16" fill="url(#racket)" rx="2"/>
  <rect x="29" y="48" width="6" height="3" fill="#92400e" rx="1"/>
  
  <!-- Shuttlecock -->
  <circle cx="45" cy="38" r="2.5" fill="#ffffff" stroke="#e5e7eb" stroke-width="1"/>
  <path d="M 45 35.5 L 43 32 L 44 32 L 45 33.5 L 46 32 L 47 32 Z" fill="#ffffff" stroke="#e5e7eb" stroke-width="0.5"/>
  
  <!-- Tournament trophy accent -->
  <circle cx="18" cy="45" r="1.5" fill="#fbbf24"/>
  <rect x="17.5" y="46" width="1" height="2" fill="#f59e0b"/>
</svg>
